<svg xmlns="http://www.w3.org/2000/svg" width="22" height="22" viewBox="0 0 22 22" fill="none">
  <path d="M4.58333 6.41683C4.58333 5.65744 5.19894 5.04183 5.95833 5.04183C6.71773 5.04183 7.33333 5.65744 7.33333 6.41683C7.33333 7.17622 6.71773 7.79183 5.95833 7.79183C5.19894 7.79183 4.58333 7.17622 4.58333 6.41683ZM5.95833 3.2085C4.18642 3.2085 2.75 4.64491 2.75 6.41683C2.75 8.18875 4.18642 9.62516 5.95833 9.62516C7.73025 9.62516 9.16667 8.18875 9.16667 6.41683C9.16667 4.64491 7.73025 3.2085 5.95833 3.2085ZM11 7.3335H18.3333V5.50016H11V7.3335ZM14.6667 15.5835C14.6667 14.8241 15.2823 14.2085 16.0417 14.2085C16.801 14.2085 17.4167 14.8241 17.4167 15.5835C17.4167 16.3429 16.801 16.9585 16.0417 16.9585C15.2823 16.9585 14.6667 16.3429 14.6667 15.5835ZM16.0417 12.3752C14.2698 12.3752 12.8333 13.8116 12.8333 15.5835C12.8333 17.3554 14.2698 18.7918 16.0417 18.7918C17.8136 18.7918 19.25 17.3554 19.25 15.5835C19.25 13.8116 17.8136 12.3752 16.0417 12.3752ZM3.66667 14.6668V16.5002H11V14.6668H3.66667Z" fill="#D1D1D2"/>
</svg>