<svg xmlns="http://www.w3.org/2000/svg" width="48" height="48" viewBox="0 0 48 48" fill="none">
  <g clip-path="url(#clip0_210_63)">
    <path d="M42.4572 39.3405C44.9208 36.3763 46.6344 32.8623 47.4527 29.0958C48.2711 25.3293 48.1703 21.4211 47.1588 17.7018C46.1473 13.9825 44.2549 10.5615 41.6417 7.72826C39.0285 4.89501 35.7713 2.73283 32.1457 1.42463C28.5201 0.116434 24.6327 -0.299295 20.8125 0.212614C16.9922 0.724522 13.3515 2.14901 10.1982 4.36557C7.04492 6.58213 4.47187 9.52555 2.69674 12.9468C0.921607 16.3681 -0.00339737 20.1666 -2.13093e-05 24.021C0.00142084 29.6242 1.97594 35.0479 5.57711 39.3405L5.54279 39.3697C5.66288 39.5138 5.80012 39.6373 5.92364 39.7797C6.07803 39.9564 6.24444 40.1228 6.40398 40.2944C6.88204 40.817 7.37954 41.3145 7.89648 41.7869C8.05659 41.9287 8.2167 42.0671 8.37682 42.202C8.92578 42.6766 9.4919 43.1238 10.0752 43.5435C10.1507 43.595 10.2193 43.6619 10.2948 43.7151V43.6945C14.3126 46.5222 19.1057 48.0398 24.0188 48.0398C28.932 48.0398 33.7251 46.5222 37.7429 43.6945V43.7151C37.8184 43.6619 37.8853 43.595 37.9625 43.5435C38.5458 43.1227 39.1119 42.6755 39.6609 42.202C39.821 42.0659 39.9811 41.9275 40.1412 41.7869C40.657 41.3145 41.1545 40.817 41.6337 40.2944C41.7933 40.1228 41.9579 39.9564 42.1141 39.7797C42.2359 39.6373 42.3748 39.5138 42.4949 39.368L42.4572 39.3405ZM24.0171 10.2969C25.544 10.2969 27.0365 10.7497 28.306 11.598C29.5755 12.4462 30.565 13.6519 31.1493 15.0625C31.7336 16.4731 31.8865 18.0253 31.5886 19.5228C31.2907 21.0203 30.5555 22.3958 29.4759 23.4755C28.3962 24.5551 27.0207 25.2903 25.5232 25.5882C24.0257 25.8861 22.4735 25.7332 21.0629 25.1489C19.6523 24.5646 18.4466 23.5751 17.5984 22.3056C16.7501 21.0361 16.2973 19.5436 16.2973 18.0167C16.2973 15.9693 17.1107 14.0058 18.5584 12.558C20.0062 11.1103 21.9697 10.2969 24.0171 10.2969ZM10.3051 39.3405C10.3348 37.088 11.2502 34.9378 12.8532 33.355C14.4562 31.7722 16.6179 30.8842 18.8706 30.8831H29.1637C31.4164 30.8842 33.5781 31.7722 35.1811 33.355C36.7841 34.9378 37.6995 37.088 37.7292 39.3405C33.9668 42.731 29.0818 44.6073 24.0171 44.6073C18.9525 44.6073 14.0674 42.731 10.3051 39.3405Z" fill="#EAEAEA"/>
  </g>
  <defs>
    <clipPath id="clip0_210_63">
      <rect width="48" height="48" fill="white"/>
    </clipPath>
  </defs>
</svg>