<svg xmlns="http://www.w3.org/2000/svg" width="111" height="34" viewBox="0 0 111 34" fill="none">
  <path d="M104.938 18.4372C106.019 18.4372 106.995 18.6726 107.867 19.1434C108.739 19.5967 109.419 20.2855 109.907 21.2096C110.413 22.1337 110.666 23.2583 110.666 24.5834V33.0311H108.312V24.9234C108.312 23.4937 107.954 22.4039 107.239 21.6542C106.524 20.887 105.548 20.5034 104.31 20.5034C103.055 20.5034 102.052 20.8957 101.302 21.6803C100.57 22.4649 100.204 23.607 100.204 25.1065V33.0311H97.824V13.6772H100.204V20.7388C100.675 20.0065 101.32 19.4398 102.139 19.0388C102.976 18.6378 103.909 18.4372 104.938 18.4372Z" fill="url(#paint0_linear_2962_407)"/>
  <path d="M83.6658 25.8388C83.6658 24.3567 83.9622 23.0665 84.555 21.968C85.1478 20.8521 85.9673 19.989 87.0135 19.3788C88.0771 18.7685 89.2888 18.4634 90.6488 18.4634C92.4099 18.4634 93.8571 18.8906 94.9904 19.7449C96.1412 20.5993 96.8996 21.7849 97.2658 23.3018H94.7027C94.4586 22.43 93.9791 21.7413 93.2642 21.2357C92.5668 20.73 91.695 20.4772 90.6488 20.4772C89.2888 20.4772 88.1904 20.948 87.3535 21.8895C86.5165 22.8136 86.0981 24.13 86.0981 25.8388C86.0981 27.5649 86.5165 28.8988 87.3535 29.8403C88.1904 30.7818 89.2888 31.2526 90.6488 31.2526C91.695 31.2526 92.5668 31.0085 93.2642 30.5203C93.9617 30.0321 94.4412 29.3347 94.7027 28.428H97.2658C96.8822 29.8926 96.115 31.0695 94.9642 31.9588C93.8135 32.8306 92.375 33.2665 90.6488 33.2665C89.2888 33.2665 88.0771 32.9613 87.0135 32.3511C85.9673 31.7408 85.1478 30.8777 84.555 29.7618C83.9622 28.6459 83.6658 27.3383 83.6658 25.8388Z" fill="url(#paint1_linear_2962_407)"/>
  <path d="M79.7899 21.0267C80.2084 20.2072 80.8012 19.5708 81.5684 19.1175C82.353 18.6642 83.3032 18.4375 84.4191 18.4375V20.896H83.7915C81.1238 20.896 79.7899 22.3431 79.7899 25.2375V33.0313H77.4099V18.699H79.7899V21.0267Z" fill="url(#paint2_linear_2962_407)"/>
  <path d="M61.4626 25.8126C61.4626 24.348 61.7591 23.0665 62.3519 21.968C62.9447 20.8521 63.7555 19.989 64.7842 19.3788C65.8303 18.7685 66.9898 18.4634 68.2626 18.4634C69.518 18.4634 70.6078 18.7336 71.5319 19.2741C72.456 19.8147 73.1447 20.4947 73.598 21.3141V18.6988H76.0042V33.0311H73.598V30.3634C73.1273 31.2003 72.4211 31.8977 71.4796 32.4557C70.5555 32.9962 69.4744 33.2665 68.2365 33.2665C66.9637 33.2665 65.8129 32.9526 64.7842 32.3249C63.7555 31.6972 62.9447 30.8167 62.3519 29.6834C61.7591 28.55 61.4626 27.2598 61.4626 25.8126ZM73.598 25.8388C73.598 24.7577 73.3801 23.8162 72.9442 23.0142C72.5083 22.2121 71.9155 21.6018 71.1657 21.1834C70.4334 20.7475 69.6226 20.5295 68.7334 20.5295C67.8442 20.5295 67.0334 20.7388 66.3011 21.1572C65.5688 21.5757 64.9847 22.1859 64.5488 22.988C64.1129 23.79 63.895 24.7316 63.895 25.8126C63.895 26.9111 64.1129 27.87 64.5488 28.6895C64.9847 29.4916 65.5688 30.1106 66.3011 30.5465C67.0334 30.9649 67.8442 31.1741 68.7334 31.1741C69.6226 31.1741 70.4334 30.9649 71.1657 30.5465C71.9155 30.1106 72.5083 29.4916 72.9442 28.6895C73.3801 27.87 73.598 26.9198 73.598 25.8388Z" fill="url(#paint3_linear_2962_407)"/>
  <path d="M61.8253 25.3157C61.8253 25.769 61.7991 26.2485 61.7468 26.7542H50.2914C50.3786 28.1665 50.8581 29.2736 51.7299 30.0757C52.6191 30.8603 53.6914 31.2526 54.9468 31.2526C55.9755 31.2526 56.8299 31.0172 57.5099 30.5465C58.2073 30.0583 58.6955 29.4131 58.9745 28.6111H61.5376C61.154 29.9885 60.3868 31.1131 59.2361 31.9849C58.0853 32.8393 56.6555 33.2665 54.9468 33.2665C53.5868 33.2665 52.3663 32.9613 51.2853 32.3511C50.2217 31.7408 49.3848 30.8777 48.7745 29.7618C48.1643 28.6285 47.8591 27.3208 47.8591 25.8388C47.8591 24.3567 48.1555 23.0577 48.7484 21.9418C49.3412 20.8259 50.1694 19.9716 51.233 19.3788C52.314 18.7685 53.552 18.4634 54.9468 18.4634C56.3068 18.4634 57.5099 18.7598 58.5561 19.3526C59.6022 19.9454 60.4043 20.7649 60.9622 21.8111C61.5376 22.8398 61.8253 24.008 61.8253 25.3157ZM59.3668 24.8188C59.3668 23.9121 59.1663 23.1362 58.7653 22.4911C58.3643 21.8285 57.815 21.3316 57.1176 21.0003C56.4376 20.6516 55.6791 20.4772 54.8422 20.4772C53.6391 20.4772 52.6104 20.8608 51.7561 21.628C50.9191 22.3952 50.4396 23.4588 50.3176 24.8188H59.3668Z" fill="url(#paint4_linear_2962_407)"/>
  <path d="M41.797 33.2141C40.5939 33.2141 39.5129 33.0049 38.5539 32.5864C37.6124 32.1505 36.8713 31.5577 36.3308 30.8079C35.7903 30.0408 35.5113 29.1603 35.4939 28.1664H38.0308C38.118 29.0208 38.4667 29.7444 39.077 30.3372C39.7047 30.9126 40.6113 31.2003 41.797 31.2003C42.9303 31.2003 43.8195 30.9213 44.4647 30.3633C45.1272 29.7879 45.4585 29.0556 45.4585 28.1664C45.4585 27.469 45.2667 26.9023 44.8831 26.4664C44.4995 26.0305 44.0201 25.6992 43.4447 25.4726C42.8693 25.2459 42.0934 25.0018 41.117 24.7403C39.9139 24.4264 38.9462 24.1126 38.2139 23.7987C37.499 23.4849 36.8801 22.9967 36.357 22.3341C35.8513 21.6541 35.5985 20.7474 35.5985 19.6141C35.5985 18.6203 35.8513 17.7397 36.357 16.9726C36.8626 16.2054 37.5688 15.6126 38.4754 15.1941C39.3995 14.7756 40.4544 14.5664 41.6401 14.5664C43.3488 14.5664 44.7436 14.9936 45.8247 15.8479C46.9231 16.7023 47.5421 17.8356 47.6816 19.2479H45.0662C44.979 18.5505 44.6129 17.9403 43.9677 17.4172C43.3226 16.8767 42.4683 16.6064 41.4047 16.6064C40.4108 16.6064 39.6001 16.8679 38.9724 17.391C38.3447 17.8967 38.0308 18.6115 38.0308 19.5356C38.0308 20.1982 38.2139 20.7387 38.5801 21.1572C38.9636 21.5756 39.4257 21.8982 39.9662 22.1249C40.5242 22.3341 41.3001 22.5782 42.2939 22.8572C43.497 23.1885 44.4647 23.5197 45.197 23.851C45.9293 24.1649 46.557 24.6618 47.08 25.3418C47.6031 26.0044 47.8647 26.911 47.8647 28.0618C47.8647 28.951 47.6293 29.7879 47.1585 30.5726C46.6877 31.3572 45.9903 31.9936 45.0662 32.4818C44.1421 32.97 43.0524 33.2141 41.797 33.2141Z" fill="url(#paint5_linear_2962_407)"/>
  <path d="M0 0H23.5385V22.2308C23.5385 28.7307 18.2692 34 11.7692 34C5.26927 34 0 28.7307 0 22.2308V0Z" fill="#5323B7"/>
  <rect x="23.5391" y="10.4614" width="7.84615" height="23.5385" fill="#5323B7"/>
  <path d="M0 0H23.5385V22.2308C23.5385 28.7307 18.2692 34 11.7692 34C5.26927 34 0 28.7307 0 22.2308V0Z" fill="#E0D9E3"/>
  <rect x="23.5391" y="10.4614" width="7.84615" height="23.5385" fill="#E0D9E3"/>
  <mask id="mask0_2962_407" style="mask-type:alpha" maskUnits="userSpaceOnUse" x="0" y="0" width="32" height="34">
    <path d="M0 0H23.5385V22.2308C23.5385 28.7307 18.2692 34 11.7692 34C5.26927 34 0 28.7307 0 22.2308V0Z" fill="#5323B7"/>
    <rect x="23.5391" y="10.4614" width="7.84615" height="23.5385" fill="#5323B7"/>
  </mask>
  <g mask="url(#mask0_2962_407)">
    <rect x="26.2012" y="51.8394" width="65.3846" height="23.4932" transform="rotate(-147.216 26.2012 51.8394)" fill="url(#paint6_linear_2962_407)"/>
  </g>
  <defs>
    <linearGradient id="paint0_linear_2962_407" x1="80.0505" y1="-31.8017" x2="152.486" y2="-36.0232" gradientUnits="userSpaceOnUse">
      <stop stop-color="#3D0CA5"/>
      <stop offset="0.131978" stop-color="#A5ACEB"/>
      <stop offset="1" stop-color="#110426"/>
    </linearGradient>
    <linearGradient id="paint1_linear_2962_407" x1="64.8425" y1="-16.3218" x2="141.319" y2="-22.4932" gradientUnits="userSpaceOnUse">
      <stop stop-color="#3D0CA5"/>
      <stop offset="0.131978" stop-color="#A5ACEB"/>
      <stop offset="1" stop-color="#110426"/>
    </linearGradient>
    <linearGradient id="paint2_linear_2962_407" x1="67.7087" y1="-15.856" x2="107.31" y2="-17.5266" gradientUnits="userSpaceOnUse">
      <stop stop-color="#3D0CA5"/>
      <stop offset="0.131978" stop-color="#A5ACEB"/>
      <stop offset="1" stop-color="#110426"/>
    </linearGradient>
    <linearGradient id="paint3_linear_2962_407" x1="41.3363" y1="-16.3218" x2="123.031" y2="-23.3707" gradientUnits="userSpaceOnUse">
      <stop stop-color="#3D0CA5"/>
      <stop offset="0.131978" stop-color="#A5ACEB"/>
      <stop offset="1" stop-color="#110426"/>
    </linearGradient>
    <linearGradient id="paint4_linear_2962_407" x1="28.5291" y1="-16.3218" x2="107.037" y2="-22.8277" gradientUnits="userSpaceOnUse">
      <stop stop-color="#3D0CA5"/>
      <stop offset="0.131978" stop-color="#A5ACEB"/>
      <stop offset="1" stop-color="#110426"/>
    </linearGradient>
    <linearGradient id="paint5_linear_2962_407" x1="18.372" y1="-29.2531" x2="88.1521" y2="-33.3192" gradientUnits="userSpaceOnUse">
      <stop stop-color="#3D0CA5"/>
      <stop offset="0.131978" stop-color="#A5ACEB"/>
      <stop offset="1" stop-color="#110426"/>
    </linearGradient>
    <linearGradient id="paint6_linear_2962_407" x1="159.444" y1="68.125" x2="26.1316" y2="58.0895" gradientUnits="userSpaceOnUse">
      <stop stop-color="#5323B7"/>
      <stop offset="0.474" stop-color="#A8D6F8"/>
      <stop offset="1" stop-color="#5323B7"/>
    </linearGradient>
  </defs>
</svg>